#!OML:ASF F:\VICON\USERDATA\INSTALL\rory3\rory3.ASF
:FULLY-SPECIFIED
:DEGREES
1574
root 3.91799 16.9585 -3.1679 -66.3302 -84.7478 73.8733
lowerback 14.5833 0.699071 -1.30415
upperback 2.72785 0.74393 2.6189
thorax -5.33887 0.345815 3.37169
lowerneck -19.8075 8.34903 -5.92369
upperneck 17.8884 13.8732 -3.37716
head 8.71151 5.66984 1.5793
rclavicle -7.15625e-015 -6.36111e-015
rhumerus -58.2893 -23.5645 -41.3035
rradius 98.7614
rwrist -50.7412
rhand 1.63154 17.4421
rfingers 7.12502
rthumb 27.1522 -10.6246
lclavicle -7.15625e-015 -6.36111e-015
lhumerus -26.5457 38.9444 47.159
lradius 127.841
lwrist 17.2256
lhand -11.1893 12.2309
lfingers 7.12502
lthumb 14.8381 41.6796
rfemur -16.5512 5.28796 -1.72528
rtibia 47.7474
rfoot -19.5025 3.95188
rtoes -19.1552
lfemur -33.3285 5.79584 -5.97725
ltibia 28.8322
lfoot -7.1227 10.1405
ltoes -14.6373
1575
root 3.84391 16.873 -3.1367 -44.7316 -84.6035 52.3471
lowerback 14.4932 0.486096 -0.677988
upperback 2.67295 0.571962 2.84177
thorax -5.33204 0.253051 3.28429
lowerneck -20.201 8.2644 -6.16361
upperneck 17.7543 13.8266 -3.25992
head 8.70876 5.64591 1.66035
rclavicle 1.19271e-014 3.65764e-014
rhumerus -60.2641 -24.2769 -40.0194
rradius 94.693
rwrist -51.1532
rhand 2.28707 16.9221
rfingers 7.12502
rthumb 27.7791 -11.0451
lclavicle 1.19271e-014 3.65764e-014
lhumerus -26.6153 39.3927 46.4998
lradius 128.224
lwrist 17.2276
lhand -10.9071 12.1355
lfingers 7.12502
lthumb 15.11 41.564
rfemur -15.2585 4.88641 -0.654879
rtibia 47.3936
rfoot -21.2753 3.37657
rtoes -20.0258
lfemur -34.0958 5.31489 -4.96482
ltibia 28.2525
lfoot -6.83227 10.6831
ltoes -13.7988
1576
root 3.77192 16.7808 -3.09659 -28.2598 -83.5832 35.729
lowerback 14.7037 0.263 -0.307727
upperback 2.55964 0.353782 3.09062
thorax -5.55319 0.144488 3.3827
lowerneck -20.2269 8.18545 -6.29026
upperneck 17.504 13.7805 -3.4674
head 8.63845 5.60569 1.59874
rclavicle 7.95139e-016 -1.59028e-015
rhumerus -62.1317 -24.7184 -38.6502
rradius 90.3342
rwrist -51.5897
rhand 1.99389 16.9975
rfingers 7.12502
rthumb 27.4988 -11.0146
lclavicle 7.95139e-016 -1.59028e-015
lhumerus -27.0235 39.7414 45.9901
lradius 128.814
lwrist 17.0576
lhand -11.0341 12.1787
lfingers 7.12502
lthumb 14.9876 41.6164
rfemur -13.7585 4.21687 0.155469
rtibia 47.1599
rfoot -22.8165 2.87799
rtoes -21.8864
lfemur -34.7458 4.71238 -4.31871
ltibia 27.779
lfoot -6.3955 10.9703
ltoes -13.2503
1577
root 3.69843 16.6875 -3.05056 -17.5385 -82.1908 24.9051
lowerback 14.8314 0.11456 0.0438449
upperback 2.45223 0.229876 3.26761
thorax -5.72903 0.0816287 3.39791
lowerneck -20.3934 8.08846 -6.26789
upperneck 17.4053 13.6953 -3.68162
head 8.6556 5.54316 1.52101
rclavicle 4.77083e-015 3.97569e-014
rhumerus -63.9186 -25.2898 -37.3854
rradius 85.7147
rwrist -52.324
rhand 1.13692 17.5632
rfingers 7.12502
rthumb 26.6789 -10.5765
lclavicle 4.77083e-015 3.97569e-014
lhumerus -27.2318 39.9804 45.7367
lradius 129.459
lwrist 16.626
lhand -11.3817 12.4506
lfingers 7.12502
lthumb 14.6528 41.9128
rfemur -12.4256 3.34493 0.84802
rtibia 47.0874
rfoot -24.0048 3.11328
rtoes -22.376
lfemur -35.4717 4.04486 -3.82109
ltibia 27.4576
lfoot -5.89365 11.1451
ltoes -13.338
1578
root 3.62751 16.5915 -2.99356 -9.4736 -80.634 16.6422
lowerback 15.0952 0.1298 0.769447
upperback 2.35957 0.377854 3.30401
thorax -5.97641 0.142321 2.99854
lowerneck -20.6428 7.91681 -5.68529
upperneck 17.4467 13.4046 -4.06476
head 8.78773 5.39073 1.29064
rclavicle -3.57812e-015 1.74931e-014
rhumerus -66.1844 -26.2998 -35.7963
rradius 81.0352
rwrist -53.9068
rhand 2.12751 16.8788
rfingers 7.12502
rthumb 27.6265 -11.1129
lclavicle -3.57812e-015 1.74931e-014
lhumerus -26.745 39.945 45.9832
lradius 129.847
lwrist 16.324
lhand -11.515 12.5558
lfingers 7.12502
lthumb 14.5243 42.0274
rfemur -11.1938 2.16791 1.67406
rtibia 47.2081
rfoot -25.0609 3.12743
rtoes -22.6339
lfemur -36.1969 3.13933 -3.20135
ltibia 27.3597
lfoot -5.48536 11.4478
ltoes -13.7545
1579
root 3.55054 16.4944 -2.92965 -3.18884 -79.0191 10.0631
lowerback 15.3124 -0.132854 1.27238
upperback 2.28845 0.148651 3.87653
thorax -6.16135 0.0214989 3.37565
lowerneck -20.6753 7.96716 -6.28411
upperneck 17.2691 13.6857 -4.31469
head 8.71404 5.46058 1.32716
rclavicle 2.10712e-014 0
rhumerus -66.9333 -26.3606 -34.2819
rradius 75.9875
rwrist -56.1612
rhand 4.22833 15.4616
rfingers 7.12502
rthumb 29.6337 -12.1913
lclavicle 2.10712e-014 0
lhumerus -28.0218 41.1583 45.7712
lradius 130.512
lwrist 16.7458
lhand -10.9469 12.3218
lfingers 7.12502
lthumb 15.0716 41.7532
rfemur -10.003 0.782574 2.65483
rtibia 47.4762
rfoot -26.066 2.39705
rtoes -23.7576
lfemur -36.9045 2.71866 -2.78648
ltibia 27.4868
lfoot -5.05768 11.517
ltoes -14.1783
1580
root 3.46425 16.4056 -2.85748 0.331907 -77.3757 6.47878
lowerback 15.0832 -0.176189 1.64162
upperback 2.24932 0.16275 4.22132
thorax -6.07809 0.0217455 3.52894
lowerneck -20.8702 7.85981 -6.72407
upperneck 17.2675 13.6894 -4.33029
head 8.72164 5.42526 1.39447
rclavicle -1.03368e-014 -4.77083e-015
rhumerus -68.0581 -26.9251 -32.6372
rradius 70.7639
rwrist -58.4564
rhand 5.51268 14.3774
rfingers 7.12502
rthumb 30.8589 -13.0508
lclavicle -1.03368e-014 -4.77083e-015
lhumerus -28.4432 41.9011 46.1294
lradius 131.186
lwrist 17.3733
lhand -10.4536 12.0064
lfingers 7.12502
lthumb 15.5468 41.4015
rfemur -9.08181 -0.707409 3.23656
rtibia 47.8432
rfoot -26.8922 1.84521
rtoes -25.1065
lfemur -37.8482 2.95991 -3.18181
ltibia 27.8029
lfoot -4.36752 11.2215
ltoes -15.1559
1581
root 3.37548 16.332 -2.77312 1.69271 -75.6989 5.16785
lowerback 14.69 -0.0858465 1.81619
upperback 2.20447 0.306934 4.35375
thorax -5.91657 0.0909662 3.53659
lowerneck -21.1028 7.73893 -6.50028
upperneck 17.4303 13.6172 -4.87433
head 8.88333 5.32014 1.19301
rclavicle 1.43125e-014 -4.77083e-015
rhumerus -69.4941 -27.7294 -30.9121
rradius 65.694
rwrist -60.879
rhand 5.5951 13.4638
rfingers 7.12502
rthumb 30.9374 -13.9496
lclavicle 1.43125e-014 -4.77083e-015
lhumerus -28.2035 42.1563 46.8168
lradius 131.698
lwrist 17.888
lhand -10.5044 11.9725
lfingers 7.12502
lthumb 15.4979 41.3713
rfemur -8.27012 -2.42332 3.27611
rtibia 48.2787
rfoot -27.3712 1.84854
rtoes -26.004
lfemur -38.8226 2.77722 -3.91049
ltibia 28.2634
lfoot -3.07649 10.6556
ltoes -15.8462
1582
root 3.28805 16.2719 -2.68366 3.33997 -73.9882 3.51428
lowerback 14.5024 0.019646 2.08936
upperback 2.04073 0.506221 4.58934
thorax -5.99743 0.186777 3.5947
lowerneck -21.1154 7.58588 -6.0638
upperneck 17.4959 13.4948 -5.82265
head 9.02284 5.16722 0.808067
rclavicle -2.82274e-014 2.22639e-014
rhumerus -71.012 -28.2962 -29.102
rradius 61.0627
rwrist -62.9753
rhand 4.49713 13.3646
rfingers 7.12502
rthumb 29.8902 -14.2425
lclavicle -2.82274e-014 2.22639e-014
lhumerus -28.2146 42.2953 47.6922
lradius 132.345
lwrist 18.3535
lhand -10.3584 12.1355
lfingers 7.12502
lthumb 15.6385 41.5235
rfemur -7.49873 -4.22075 3.45218
rtibia 48.8168
rfoot -27.4867 1.78877
rtoes -26.8589
lfemur -39.7874 1.82335 -3.91895
ltibia 28.9081
lfoot -0.504261 8.85383
ltoes -15.0742
1583
root 3.20444 16.2107 -2.59537 5.06036 -72.2004 1.80061
lowerback 14.4252 0.1534 2.34406
upperback 1.80956 0.754122 4.91836
thorax -6.2151 0.307273 3.75779
lowerneck -21.0641 7.31448 -6.15903
upperneck 17.4848 13.2072 -6.10245
head 9.03057 4.99368 0.689959
rclavicle 2.18663e-014 -1.27222e-014
rhumerus -72.4999 -28.7253 -27.3724
rradius 56.9901
rwrist -63.9776
rhand 2.53126 13.7041
rfingers 7.12502
rthumb 28.0126 -14.2252
lclavicle 2.18663e-014 -1.27222e-014
lhumerus -28.2698 42.3504 48.7063
lradius 133.023
lwrist 18.793
lhand -10.2916 12.1957
lfingers 7.12502
lthumb 15.7028 41.5786
rfemur -6.82741 -5.83348 3.78463
rtibia 49.4647
rfoot -27.4205 1.35314
rtoes -27.7678
lfemur -41.071 0.85298 -3.59049
ltibia 29.892
lfoot 2.68664 5.61036
ltoes -15.1958
1584
root 3.12169 16.1396 -2.50715 5.2628 -70.3561 1.64712
lowerback 14.2932 0.333926 2.06235
upperback 1.68296 0.970346 5.18368
thorax -6.29829 0.425505 4.16236
lowerneck -21.2966 7.07139 -6.5971
upperneck 17.5654 12.9904 -5.87793
head 9.05516 4.87886 0.810017
rclavicle 2.38542e-015 2.8625e-014
rhumerus -73.8592 -29.3487 -25.7223
rradius 53.4803
rwrist -63.4176
rhand 0.644191 13.8986
rfingers 7.12502
rthumb 26.2073 -14.3121
lclavicle 2.38542e-015 2.8625e-014
lhumerus -27.9936 42.4833 50.02
lradius 133.549
lwrist 19.0327
lhand -10.2442 12.262
lfingers 7.12502
lthumb 15.7485 41.6413
rfemur -6.12737 -7.15265 3.59943
rtibia 50.1905
rfoot -27.1779 1.32606
rtoes -27.4734
lfemur -42.5897 0.60948 -4.16925
ltibia 31.266
lfoot 4.76192 2.43694
ltoes -18.0544
1585
root 3.03137 16.0757 -2.42006 4.61852 -68.4961 2.32135
lowerback 14.0754 0.607131 1.454
upperback 1.63867 1.24886 5.37585
thorax -6.25953 0.582685 4.66175
lowerneck -21.6413 6.78781 -6.77018
upperneck 17.7731 12.7617 -6.08361
head 9.19897 4.70869 0.755473
rclavicle 4.85035e-014 -4.6118e-014
rhumerus -75.4493 -30.2065 -24.0732
rradius 50.659
rwrist -62.0522
rhand -0.564404 14.2538
rfingers 7.12502
rthumb 25.0497 -14.1235
lclavicle 4.85035e-014 -4.6118e-014
lhumerus -27.4825 42.3708 51.7852
lradius 133.994
lwrist 19.0066
lhand -10.9213 12.0466
lfingers 7.12502
lthumb 15.0963 41.4761
rfemur -5.28314 -8.14993 3.09715
rtibia 50.9201
rfoot -26.733 1.60694
rtoes -27.351
lfemur -44.1186 0.877428 -5.48583
ltibia 32.9462
lfoot 5.28419 -0.0598638
ltoes -20.4181
1586
root 2.93079 16.0232 -2.3308 4.25664 -66.5299 2.55934
lowerback 13.8723 0.875364 1.10947
upperback 1.62027 1.55814 5.50687
thorax -6.20238 0.747016 4.93984
lowerneck -21.8223 6.46333 -6.71924
upperneck 17.8822 12.4319 -6.5135
head 9.31168 4.49086 0.569743
rclavicle -3.33958e-014 1.00187e-013
rhumerus -77.294 -31.1599 -22.7409
rradius 48.5382
rwrist -61.2371
rhand -0.953047 14.9231
rfingers 7.12502
rthumb 24.6772 -13.5057
lclavicle -3.33958e-014 1.00187e-013
lhumerus -27.0173 41.9906 53.4825
lradius 134.333
lwrist 19.1071
lhand -11.3975 11.0534
lfingers 7.12502
lthumb 14.6375 40.5168
rfemur -4.17795 -8.98003 2.75511
rtibia 51.5531
rfoot -26.1149 1.72855
rtoes -28.5054
lfemur -45.5951 1.00238 -6.67614
ltibia 34.838
lfoot 5.30347 -2.37773
ltoes -17.9963
